<svg xmlns="http://www.w3.org/2000/svg" viewBox="0 0 113.05 370.2"><title>アセット 1</title><g id="レイヤー_2" data-name="レイヤー 2"><g id="レイヤー_1-2" data-name="レイヤー 1"><g id="レイヤー_3" data-name="レイヤー 3"><path d="M113.05,0V367.85a61.84,61.84,0,0,1-17,2.35,57,57,0,0,1-57-57c0-1.08,0-2.15.1-3.22.68-1.65,5.06-12.1,6.9-15.78a37.45,37.45,0,0,1,6-8l-5-2s-3,6-5,11c-1.48,3.69-2.41,10.09-2.79,13.2a56.93,56.93,0,0,1,8-24.69,56,56,0,0,1-6.53-36.29A71,71,0,0,1,24.8,129.32a38,38,0,0,0-4.73,4.86c.56-.41,14.24-10.35,30-15,17-5,27,0,27,0l-2-7-.38,0A60.82,60.82,0,0,1,90.25,83.76c-.69-.65-1.35-1.31-2-2a42,42,0,0,1-6.12-48.7l0,0a68.31,68.31,0,0,1,8.87-8.85,34.91,34.91,0,0,1,7-4l-1.9-1.9h0l-.09-.1c-.87.53-1.73,1.08-2.56,1.66,1-.75,2-1.45,3-2.1A23,23,0,0,1,113.05,0Z" style="fill:#fff"/><path d="M47.05,284.2l5,2a37.45,37.45,0,0,0-6,8c-1.84,3.68-6.22,14.13-6.9,15.78,0-.53.06-1.05.11-1.58.38-3.11,1.31-9.51,2.79-13.2C44.05,290.2,47.05,284.2,47.05,284.2Z" style="fill:#fff"/><path d="M75.05,112.2l2,7s-10-5-27,0c-15.74,4.63-29.42,14.57-30,15a39.79,39.79,0,0,1,5.36-5.41l.05,0A71.1,71.1,0,0,1,70.4,112.2h.65c1.2,0,2.4,0,3.59.09l0-.11Z" style="fill:#fff"/><path d="M96.14,18.3a41.53,41.53,0,0,0-4,2.6l1.31-1c.83-.58,1.69-1.13,2.56-1.66Z" style="fill:#fff"/><path d="M52.05,286.2a37.45,37.45,0,0,0-6,8c-1.84,3.68-6.22,14.13-6.9,15.78-.07.14-.1.22-.1.22s.07-.69.21-1.8c.38-3.11,1.31-9.51,2.79-13.2,2-5,5-11,5-11Z" style="fill:#ccc"/><path d="M77.05,119.2s-10-5-27,0c-15.74,4.63-29.42,14.57-30,15a39.79,39.79,0,0,1,5.36-5.41l.05,0a71.55,71.55,0,0,1,14.57-9.53,60.65,60.65,0,0,1,11.77-4.35A86,86,0,0,1,70.4,112.2h.12c2-.07,3.5,0,4.15,0l.38,0Z" style="fill:#ccc"/><path d="M96.14,18.3a41.53,41.53,0,0,0-4,2.6l-.06.05a41,41,0,0,0-3.65,3.44,41.65,41.65,0,0,0-6.29,8.66l0,0-.1.11a53.08,53.08,0,0,1,4.13-6.77,20,20,0,0,1,1.86-2.21,50.48,50.48,0,0,1,5.44-4.34c.83-.58,1.69-1.13,2.56-1.66Z" style="fill:#ccc"/></g><path d="M98.05,20.2a34.91,34.91,0,0,0-7,4,68.31,68.31,0,0,0-8.87,8.85,41.65,41.65,0,0,1,6.29-8.66A41,41,0,0,1,92.12,21l.06-.05a41.53,41.53,0,0,1,4-2.6h0Z" style="fill:#ccc"/></g></g></svg>