<?xml version="1.0" encoding="utf-8"?>
<!-- Generator: Adobe Illustrator 23.0.3, SVG Export Plug-In . SVG Version: 6.00 Build 0)  -->
<svg version="1.1" id="レイヤー_1" xmlns="http://www.w3.org/2000/svg" xmlns:xlink="http://www.w3.org/1999/xlink" x="0px"
	 y="0px" viewBox="0 0 113 370.2" style="enable-background:new 0 0 113 370.2;" xml:space="preserve">
<style type="text/css">
	.st0{fill:#FFFFFF;}
	.st1{fill:#CCCCCC;}
</style>
<title>アセット 2</title>
<g>
	<g id="レイヤー_3">
		<path class="st0" d="M113,0v367.8c-5.5,1.6-11.3,2.4-17,2.4c-31.5,0-57-25.5-57-57c0-1.1,0-2.2,0.1-3.2c0.7-1.6,5.1-12.1,6.9-15.8
			c1.6-2.9,3.7-5.6,6-8l-5-2c0,0-3,6-5,11c-1.5,3.7-2.4,10.1-2.8,13.2c0.7-8.7,3.5-17.2,8-24.7c-6.2-11-8.5-23.8-6.5-36.3
			c-35.5-16.7-50.7-59-33.9-94.5c4.3-9.2,10.5-17.2,18-23.6c-3,2.7-4.5,4.6-4.7,4.9c0.6-0.4,14.2-10.3,30-15c17-5,27,0,27,0l-2-7
			c0,0-0.1,0-0.4,0c2.5-10.7,7.9-20.5,15.6-28.4c-0.7-0.7-1.4-1.3-2-2c-12.5-13.4-14.6-33.1-6.1-48.7c0,0,0,0,0,0
			c0.8-1,5.3-6.1,8.9-8.8c2.2-1.6,4.5-2.9,7-4l-1.9-1.9c0,0,0,0,0,0L96,18.2c-0.9,0.5-1.7,1.1-2.6,1.7c1-0.8,2-1.5,3-2.1
			C98.1,9.2,104.5,2.3,113,0z"/>
		<path class="st0" d="M47,284.2l5,2c-2.3,2.4-4.4,5.1-6,8c-1.8,3.7-6.2,14.1-6.9,15.8c0-0.5,0.1-1,0.1-1.6
			c0.4-3.1,1.3-9.5,2.8-13.2C44,290.2,47,284.2,47,284.2z"/>
		<path class="st0" d="M75,112.2l2,7c0,0-10-5-27,0c-15.7,4.6-29.4,14.6-30,15c0.2-0.3,1.9-2.4,5.4-5.4c0,0,0,0,0,0
			c7.7-6.4,16.6-11.2,26.3-13.9c6-1.7,12.2-2.6,18.6-2.6H71c1.2,0,2.4,0,3.6,0.1c0,0,0-0.1,0-0.1C74.9,112.2,75,112.2,75,112.2z"/>
		<path class="st0" d="M96.1,18.3c-1.4,0.8-2.7,1.7-4,2.6c0.4-0.4,0.9-0.7,1.3-1C94.3,19.3,95.1,18.7,96.1,18.3L96.1,18.3z"/>
		<path class="st1" d="M52,286.2c-2.3,2.4-4.4,5.1-6,8c-1.8,3.7-6.2,14.1-6.9,15.8c-0.1,0.1-0.1,0.2-0.1,0.2s0.1-0.7,0.2-1.8
			c0.4-3.1,1.3-9.5,2.8-13.2c2-5,5-11,5-11L52,286.2z"/>
		<path class="st1" d="M77,119.2c0,0-10-5-27,0c-15.7,4.6-29.4,14.6-30,15c0.2-0.3,1.9-2.4,5.4-5.4c0,0,0,0,0,0
			c3.3-2.8,8-6.3,14.6-9.5c3.8-1.9,7.9-3.3,11.8-4.4c7.4-1.9,14.2-2.5,18.6-2.6h0.1c2-0.1,3.5,0,4.2,0c0.3,0,0.4,0,0.4,0L77,119.2z"
			/>
		<path class="st1" d="M96.1,18.3c-1.4,0.8-2.7,1.7-4,2.6c0,0,0,0-0.1,0c-1.3,1.1-2.5,2.2-3.7,3.4c-2.5,2.7-4.6,5.6-6.3,8.7
			c0,0,0,0,0,0c0,0.1-0.1,0.1-0.1,0.1c0.1-0.3,2-3.8,4.1-6.8c0.6-0.8,1.2-1.6,1.9-2.2c1.7-1.6,3.5-3,5.4-4.3
			C94.3,19.3,95.1,18.7,96.1,18.3L96.1,18.3z"/>
	</g>
</g>
<path class="st1" d="M98,20.2c-2.5,1.1-4.8,2.4-7,4c-3.6,2.7-8.1,7.9-8.9,8.8c1.7-3.1,3.8-6,6.3-8.7c1.1-1.2,2.4-2.4,3.7-3.4
	c0,0,0,0,0.1,0c1.3-0.9,2.6-1.8,4-2.6c0,0,0,0,0,0L98,20.2z"/>
</svg>
