<svg xmlns="http://www.w3.org/2000/svg" viewBox="0 0 150 599.34"><title>アセット 10</title><g id="レイヤー_2" data-name="レイヤー 2"><g id="レイヤー_3" data-name="レイヤー 3"><path d="M144,599.34q3,0,6-.21V0a76,76,0,0,0-22.82,103,100.38,100.38,0,0,0-46.49,42.54A96,96,0,0,0,32.52,312.34a110.05,110.05,0,0,0,37.4,143.15A91,91,0,0,0,144,599.34Z" style="fill:#fff"/><path d="M70,455l7,3a82.66,82.66,0,0,0-12,14,111.46,111.46,0,0,0-11,20s3.39-14.79,7-22A127.12,127.12,0,0,1,70,455Z" style="fill:#ccc"/><path d="M81,146l1,7a56.58,56.58,0,0,0-29,6c-14,7-30,19-30,19s14.33-15.33,27-22C69,146,81,146,81,146Z" style="fill:#ccc"/><path d="M127,103l3,6s-13,3-19,6-15,10-15,10,8-8,14-12S127,103,127,103Z" style="fill:#ccc"/><path d="M32.5,312.5l5,4s-6,7-9,14c-2.12,4.95-8.17,24.31-8.17,24.31s2.74-16.89,4.49-23.76A72.61,72.61,0,0,1,32.5,312.5Z" style="fill:#ccc"/></g></g></svg>