<svg xmlns="http://www.w3.org/2000/svg" viewBox="0 0 439.86 103"><title>アセット 9</title><g id="レイヤー_2" data-name="レイヤー 2"><g id="レイヤー_3" data-name="レイヤー 3"><path d="M439.83,103H5.68A38,38,0,0,1,38,45a37.1,37.1,0,0,1,4.62.28A63.08,63.08,0,0,1,117.37,8.15h0c1.71.76,9,4.38,18.62,14.85,11,12,12,22,12,22l7-8s-1.94-4.52-8.92-12a63,63,0,0,1,9.33,12.24A137.28,137.28,0,0,1,229,16c1.93,0,3.86,0,5.77.12A66,66,0,0,1,331.92,28,60,60,0,0,0,323,18c.44.7,9.07,14.31,13,27,4,13,3,28,3,28l4.92-3.94c0,.09,0,.18,0,.27a29,29,0,0,1,31.24-3.18c.94.95,6,6.13,7.85,8.85,2,3,3,8,3,8l2.87-1.91A23.49,23.49,0,0,1,412,81s5,7,6,10,0,8,0,8h6l0-.1C433.08,100.31,440.38,101.68,439.83,103Z" style="fill:#fff"/><path d="M146.08,25c7,7.48,8.92,12,8.92,12l-7,8s-1-10-12-22c-9.6-10.47-16.91-14.09-18.62-14.85a62.9,62.9,0,0,1,28.46,16.6Z" style="fill:#fff"/><path d="M332.05,28.13A65.66,65.66,0,0,1,344,66c0,1,0,2-.08,3.06L339,73s1-15-3-28c-3.9-12.66-12.53-26.27-13-27A60,60,0,0,1,331.92,28Z" style="fill:#fff"/><path d="M388.45,80.1q.23.5.42,1L386,83s-1-5-3-8c-1.81-2.72-6.91-7.9-7.85-8.85l.93.49,0,0a26.62,26.62,0,0,1,3.77,2.52,1.33,1.33,0,0,1,.19.14A29,29,0,0,1,388.42,80Z" style="fill:#fff"/><path d="M418,99s1-5,0-8-6-10-6-10h0A23.62,23.62,0,0,1,420.37,89a0,0,0,0,1,0,0,23.12,23.12,0,0,1,3.4,9.36c0,.18.05.36.07.54l.12,0,0,.1Z" style="fill:#fff"/><path d="M418,99s1-5,0-8-6-10-6-10h0c.35.12,6,2.15,8,7,.12.31.25.63.37,1a0,0,0,0,1,0,0c1.47,3.75,2.87,7.8,3.4,9.36.09.26.15.46.19.56l0,.1Z" style="fill:#ccc"/><path d="M389,81l-.13.09L386,83s-1-5-3-8c-1.81-2.72-6.91-7.9-7.85-8.85L375,66l1.08.64,0,0c.95.58,2.37,1.49,3.77,2.52a1.33,1.33,0,0,1,.19.14A17.35,17.35,0,0,1,384,73l.35.52c1.41,2.15,3.17,5,4.07,6.51l0,.07C388.8,80.66,389,81,389,81Z" style="fill:#ccc"/><path d="M344,69l-.08.06L339,73s1-15-3-28c-3.9-12.66-12.53-26.27-13-27A60,60,0,0,1,331.92,28l.13.18A66.36,66.36,0,0,1,341,45C347,62,344,69,344,69Z" style="fill:#ccc"/><path d="M155,37l-7,8s-1-10-12-22c-9.6-10.47-16.91-14.09-18.62-14.85h0L117,8c.64.16,15.31,4,23,11,2.25,2.06,4.18,4,5.84,5.75l.24.25C153.06,32.48,155,37,155,37Z" style="fill:#ccc"/></g></g></svg>